<svg width="25" height="25" viewBox="0 0 25 25" fill="none" xmlns="http://www.w3.org/2000/svg">
<path d="M8.75016 17.7083L12.5002 13.9583L16.2502 17.7083L17.7085 16.25L13.9585 12.5L17.7085 8.75001L16.2502 7.29168L12.5002 11.0417L8.75016 7.29168L7.29183 8.75001L11.0418 12.5L7.29183 16.25L8.75016 17.7083ZM12.5002 22.9167C11.0592 22.9167 9.70503 22.6431 8.43766 22.0958C7.1703 21.5486 6.06787 20.8066 5.13037 19.8698C4.19287 18.933 3.45086 17.8306 2.90433 16.5625C2.3578 15.2945 2.08419 13.9403 2.0835 12.5C2.0828 11.0597 2.35641 9.70557 2.90433 8.43751C3.45225 7.16946 4.19426 6.06702 5.13037 5.13022C6.06648 4.19341 7.16891 3.4514 8.43766 2.90418C9.70641 2.35695 11.0606 2.08334 12.5002 2.08334C13.9397 2.08334 15.2939 2.35695 16.5627 2.90418C17.8314 3.4514 18.9338 4.19341 19.87 5.13022C20.8061 6.06702 21.5484 7.16946 22.097 8.43751C22.6456 9.70557 22.9189 11.0597 22.9168 12.5C22.9147 13.9403 22.6411 15.2945 22.096 16.5625C21.5509 17.8306 20.8088 18.933 19.87 19.8698C18.9311 20.8066 17.8286 21.549 16.5627 22.0969C15.2967 22.6448 13.9425 22.9181 12.5002 22.9167ZM12.5002 20.8333C14.8266 20.8333 16.797 20.0261 18.4116 18.4115C20.0262 16.7969 20.8335 14.8264 20.8335 12.5C20.8335 10.1736 20.0262 8.20313 18.4116 6.58855C16.797 4.97397 14.8266 4.16668 12.5002 4.16668C10.1738 4.16668 8.20329 4.97397 6.58871 6.58855C4.97412 8.20313 4.16683 10.1736 4.16683 12.5C4.16683 14.8264 4.97412 16.7969 6.58871 18.4115C8.20329 20.0261 10.1738 20.8333 12.5002 20.8333Z" fill="#F24822"/>
</svg>
