<svg width="25" height="25" viewBox="0 0 25 25" fill="none" xmlns="http://www.w3.org/2000/svg">
<path d="M10.6698 16.9937L6.25 12.5729L7.72292 11.1L10.6698 14.0458L16.5615 8.15311L18.0354 9.62706L10.6698 16.9937Z" fill="#14AE5C"/>
<path fill-rule="evenodd" clip-rule="evenodd" d="M1.04175 12.5C1.04175 6.17186 6.17196 1.04166 12.5001 1.04166C18.8282 1.04166 23.9584 6.17186 23.9584 12.5C23.9584 18.8281 18.8282 23.9583 12.5001 23.9583C6.17196 23.9583 1.04175 18.8281 1.04175 12.5ZM12.5001 21.875C11.2689 21.875 10.0499 21.6325 8.91242 21.1614C7.775 20.6902 6.7415 19.9997 5.87095 19.1291C5.00041 18.2586 4.30985 17.2251 3.83871 16.0876C3.36757 14.9502 3.12508 13.7311 3.12508 12.5C3.12508 11.2688 3.36757 10.0498 3.83871 8.91233C4.30985 7.77491 5.00041 6.74141 5.87095 5.87086C6.7415 5.00031 7.775 4.30976 8.91242 3.83862C10.0499 3.36748 11.2689 3.12499 12.5001 3.12499C14.9865 3.12499 17.3711 4.11271 19.1292 5.87086C20.8874 7.62902 21.8751 10.0136 21.8751 12.5C21.8751 14.9864 20.8874 17.371 19.1292 19.1291C17.3711 20.8873 14.9865 21.875 12.5001 21.875Z" fill="#14AE5C"/>
</svg>
