<svg width="35" height="35" viewBox="0 0 35 35" fill="none" xmlns="http://www.w3.org/2000/svg">
<path fill-rule="evenodd" clip-rule="evenodd" d="M26.7959 19.992C26.3586 21.6238 25.4995 23.1118 24.3049 24.3063C23.1104 25.5009 21.6224 26.3601 19.9906 26.7974C18.3589 27.2347 16.6407 27.2349 15.0088 26.7978C13.377 26.3608 11.8889 25.5019 10.6941 24.3075L10.1481 23.7633H14.4059C14.754 23.7633 15.0878 23.625 15.334 23.3788C15.5801 23.1327 15.7184 22.7989 15.7184 22.4508C15.7184 22.1027 15.5801 21.7688 15.334 21.5227C15.0878 21.2765 14.754 21.1383 14.4059 21.1383H6.98064C6.63254 21.1383 6.2987 21.2765 6.05256 21.5227C5.80642 21.7688 5.66814 22.1027 5.66814 22.4508V29.8743C5.66814 30.2224 5.80642 30.5562 6.05256 30.8023C6.2987 31.0485 6.63254 31.1868 6.98064 31.1868C7.32873 31.1868 7.66257 31.0485 7.90872 30.8023C8.15486 30.5562 8.29314 30.2224 8.29314 29.8743V25.6218L8.83564 26.1643C10.3561 27.6851 12.2502 28.7789 14.3274 29.3356C16.4046 29.8924 18.5918 29.8925 20.6691 29.3359C22.7464 28.7794 24.6405 27.6857 26.1611 26.165C27.6817 24.6443 28.7752 22.7501 29.3316 20.6728C29.4221 20.3365 29.3754 19.9781 29.2016 19.6763C29.0278 19.3745 28.7413 19.1541 28.405 19.0636C28.0688 18.9731 27.7103 19.0199 27.4085 19.1937C27.1068 19.3675 26.8864 19.6558 26.7959 19.992ZM28.9484 13.475C29.194 13.2288 29.3318 12.8952 29.3316 12.5475V5.12576C29.3316 4.77767 29.1934 4.44383 28.9472 4.19769C28.7011 3.95154 28.3672 3.81326 28.0191 3.81326C27.671 3.81326 27.3372 3.95154 27.0911 4.19769C26.8449 4.44383 26.7066 4.77767 26.7066 5.12576V9.38001L26.1641 8.83751C24.6437 7.31666 22.7496 6.22288 20.6724 5.66613C18.5952 5.10938 16.408 5.10929 14.3307 5.66585C12.2534 6.22242 10.3593 7.31603 8.83864 8.83675C7.31803 10.3575 6.22456 12.2517 5.66814 14.329C5.61757 14.4972 5.60126 14.6738 5.6202 14.8485C5.63914 15.0231 5.69292 15.1921 5.77838 15.3455C5.86383 15.499 5.97921 15.6337 6.11768 15.7417C6.25616 15.8498 6.41491 15.9289 6.58452 15.9745C6.75414 16.0201 6.93118 16.0311 7.10515 16.007C7.27913 15.9829 7.44649 15.9242 7.59733 15.8342C7.74818 15.7442 7.87943 15.6249 7.98332 15.4833C8.08721 15.3417 8.16162 15.1807 8.20214 15.0098C8.63889 13.3771 9.49781 11.8883 10.6925 10.693C11.8873 9.49763 13.3757 8.63794 15.008 8.20035C16.6404 7.76276 18.3593 7.7627 19.9917 8.20018C21.6241 8.63766 23.1126 9.49725 24.3074 10.6925L24.8516 11.235H20.5956C20.2475 11.235 19.9137 11.3733 19.6676 11.6194C19.4214 11.8656 19.2831 12.1994 19.2831 12.5475C19.2831 12.8956 19.4214 13.2294 19.6676 13.4756C19.9137 13.7217 20.2475 13.86 20.5956 13.86H28.0209C28.3686 13.8602 28.7022 13.7223 28.9484 13.4768" fill="#757575"/>
</svg>
