<svg width="25" height="25" viewBox="0 0 25 25" fill="none" xmlns="http://www.w3.org/2000/svg">
<path d="M10.8853 16.1458C11.302 16.5625 11.8402 16.7667 12.4999 16.7583C13.1596 16.75 13.6458 16.5111 13.9583 16.0417L19.7916 7.29166L11.0416 13.125C10.5728 13.4375 10.3256 13.9149 10.2999 14.5573C10.2742 15.1996 10.4694 15.7292 10.8853 16.1458ZM12.4999 4.16666C13.5242 4.16666 14.5096 4.30971 15.4562 4.59582C16.4027 4.88193 17.2923 5.3118 18.1249 5.88541L16.1458 7.13541C15.5728 6.84027 14.9784 6.61909 14.3624 6.47186C13.7464 6.32464 13.1256 6.25068 12.4999 6.24999C10.1909 6.24999 8.22457 7.0618 6.60096 8.68541C4.97735 10.309 4.16589 12.275 4.16659 14.5833C4.16659 15.3125 4.26659 16.033 4.46659 16.7448C4.66659 17.4566 4.94853 18.125 5.31242 18.75H19.6874C20.0867 18.0903 20.3777 17.4045 20.5603 16.6927C20.743 15.9809 20.8339 15.243 20.8333 14.4792C20.8333 13.8542 20.7593 13.2465 20.6114 12.6562C20.4635 12.066 20.2423 11.493 19.9478 10.9375L21.1978 8.95832C21.7187 9.7743 22.1312 10.6424 22.4353 11.5625C22.7395 12.4826 22.8999 13.4375 22.9166 14.4271C22.9333 15.4167 22.8204 16.3628 22.578 17.2656C22.3357 18.1684 21.9798 19.0278 21.5103 19.8437C21.3194 20.1562 21.0589 20.3993 20.7291 20.5729C20.3992 20.7465 20.052 20.8333 19.6874 20.8333H5.31242C4.94783 20.8333 4.60061 20.7465 4.27075 20.5729C3.94089 20.3993 3.68047 20.1562 3.4895 19.8437C3.03811 19.0625 2.69089 18.2337 2.44784 17.3573C2.20478 16.4809 2.08325 15.5562 2.08325 14.5833C2.08325 13.1424 2.35686 11.7927 2.90409 10.5344C3.45131 9.27603 4.19784 8.1736 5.14367 7.22707C6.0895 6.28055 7.1961 5.53402 8.46346 4.98749C9.73082 4.44096 11.0763 4.16735 12.4999 4.16666Z" fill="#FFA629"/>
</svg>
