<svg width="25" height="25" viewBox="0 0 25 25" fill="none" xmlns="http://www.w3.org/2000/svg">
<path d="M12.5 2.08334C14.1171 2.08328 15.6712 2.70997 16.8359 3.83174C18.0006 4.95351 18.6852 6.48304 18.7458 8.09896L18.75 8.33334H19.7917C20.3173 8.33317 20.8235 8.53168 21.2089 8.88906C21.5943 9.24645 21.8304 9.7363 21.8698 10.2604L21.875 10.4167V20.8333C21.8752 21.3589 21.6767 21.8652 21.3193 22.2506C20.9619 22.636 20.472 22.872 19.9479 22.9115L19.7917 22.9167H5.20833C4.68273 22.9168 4.17649 22.7183 3.7911 22.3609C3.4057 22.0036 3.16963 21.5137 3.13021 20.9896L3.125 20.8333V10.4167C3.12483 9.89107 3.32334 9.38483 3.68073 8.99943C4.03811 8.61404 4.52796 8.37796 5.05208 8.33854L5.20833 8.33334H6.25C6.25 6.67573 6.90848 5.08602 8.08058 3.91392C9.25269 2.74182 10.8424 2.08334 12.5 2.08334ZM19.7917 10.4167H5.20833V20.8333H19.7917V10.4167ZM12.5 12.5C12.9444 12.5001 13.377 12.6424 13.7348 12.9059C14.0926 13.1694 14.3568 13.5404 14.4887 13.9648C14.6207 14.3891 14.6135 14.8445 14.4682 15.2644C14.3229 15.6844 14.0472 16.0469 13.6812 16.299L13.5417 16.3875V17.7083C13.5414 17.9738 13.4397 18.2292 13.2574 18.4223C13.0752 18.6153 12.8261 18.7315 12.561 18.7471C12.296 18.7626 12.035 18.6764 11.8314 18.506C11.6278 18.3356 11.497 18.0939 11.4656 17.8302L11.4583 17.7083V16.3875C11.0612 16.1582 10.7508 15.8042 10.5753 15.3805C10.3998 14.9569 10.3691 14.4871 10.4877 14.0441C10.6064 13.6012 10.868 13.2097 11.2318 12.9305C11.5956 12.6514 12.0414 12.5 12.5 12.5ZM12.5 4.16667C11.3949 4.16667 10.3351 4.60566 9.55372 5.38706C8.77232 6.16846 8.33333 7.22827 8.33333 8.33334H16.6667C16.6667 7.22827 16.2277 6.16846 15.4463 5.38706C14.6649 4.60566 13.6051 4.16667 12.5 4.16667Z" fill="#757575"/>
</svg>
