<svg width="25" height="25" viewBox="0 0 25 25" fill="none" xmlns="http://www.w3.org/2000/svg">
<path d="M19.9707 8.45947C20.4997 8.72803 20.9757 9.05762 21.3989 9.44824C21.8221 9.83887 22.1883 10.2783 22.4976 10.7666C22.8068 11.2549 23.0387 11.7757 23.1934 12.3291C23.348 12.8825 23.4294 13.4603 23.4375 14.0625H21.875C21.875 13.4196 21.7529 12.8133 21.5088 12.2437C21.2646 11.674 20.9269 11.1776 20.4956 10.7544C20.0643 10.3312 19.5679 9.99756 19.0063 9.75342C18.4448 9.50928 17.8385 9.38314 17.1875 9.375C16.5446 9.375 15.9383 9.49707 15.3687 9.74121C14.799 9.98535 14.3026 10.3231 13.8794 10.7544C13.4562 11.1857 13.1226 11.6821 12.8784 12.2437C12.6343 12.8052 12.5081 13.4115 12.5 14.0625C12.5 14.8031 12.3332 15.507 11.9995 16.1743C11.6659 16.8416 11.1979 17.395 10.5957 17.8345C11.1247 18.103 11.6007 18.4326 12.0239 18.8232C12.4471 19.2139 12.8133 19.6533 13.1226 20.1416C13.4318 20.6299 13.6637 21.1507 13.8184 21.7041C13.973 22.2575 14.0544 22.8353 14.0625 23.4375H12.5C12.5 22.7946 12.3779 22.1883 12.1338 21.6187C11.8896 21.049 11.5519 20.5526 11.1206 20.1294C10.6893 19.7062 10.1929 19.3726 9.63135 19.1284C9.06982 18.8843 8.46354 18.7581 7.8125 18.75C7.1696 18.75 6.56331 18.8721 5.99365 19.1162C5.42399 19.3604 4.92757 19.6981 4.50439 20.1294C4.08122 20.5607 3.74756 21.0571 3.50342 21.6187C3.25928 22.1802 3.13314 22.7865 3.125 23.4375H1.5625C1.5625 22.8434 1.64388 22.2697 1.80664 21.7163C1.9694 21.1629 2.20133 20.6421 2.50244 20.1538C2.80355 19.6655 3.16569 19.2261 3.58887 18.8354C4.01204 18.4448 4.49219 18.1112 5.0293 17.8345C4.43522 17.395 3.97135 16.8416 3.6377 16.1743C3.30404 15.507 3.13314 14.8031 3.125 14.0625C3.125 13.4196 3.24707 12.8133 3.49121 12.2437C3.73535 11.674 4.07308 11.1776 4.50439 10.7544C4.93571 10.3312 5.43213 9.99756 5.99365 9.75342C6.55518 9.50928 7.16146 9.38314 7.8125 9.375C8.55306 9.375 9.257 9.54183 9.92432 9.87549C10.5916 10.2091 11.145 10.6771 11.5845 11.2793C11.8937 10.6689 12.2884 10.1237 12.7686 9.64355C13.2487 9.16341 13.7939 8.76872 14.4043 8.45947C13.8102 8.02002 13.3464 7.46663 13.0127 6.79932C12.679 6.132 12.5081 5.42806 12.5 4.6875C12.5 4.0446 12.6221 3.43831 12.8662 2.86865C13.1104 2.29899 13.4481 1.80257 13.8794 1.37939C14.3107 0.956217 14.8071 0.622559 15.3687 0.378418C15.9302 0.134277 16.5365 0.00813802 17.1875 0C17.8304 0 18.4367 0.12207 19.0063 0.366211C19.576 0.610352 20.0724 0.948079 20.4956 1.37939C20.9188 1.81071 21.2524 2.30713 21.4966 2.86865C21.7407 3.43018 21.8669 4.03646 21.875 4.6875C21.875 5.42806 21.7082 6.132 21.3745 6.79932C21.0409 7.46663 20.5729 8.02002 19.9707 8.45947ZM7.8125 17.1875C8.23568 17.1875 8.63851 17.1061 9.021 16.9434C9.40348 16.7806 9.73307 16.5568 10.0098 16.272C10.2865 15.9871 10.5103 15.6576 10.6812 15.2832C10.8521 14.9089 10.9375 14.502 10.9375 14.0625C10.9375 13.6393 10.8561 13.2365 10.6934 12.854C10.5306 12.4715 10.3068 12.1419 10.022 11.8652C9.73714 11.5885 9.40348 11.3647 9.021 11.1938C8.63851 11.0229 8.23568 10.9375 7.8125 10.9375C7.38119 10.9375 6.97835 11.0189 6.604 11.1816C6.22965 11.3444 5.90006 11.5682 5.61523 11.853C5.3304 12.1379 5.10661 12.4715 4.94385 12.854C4.78109 13.2365 4.69564 13.6393 4.6875 14.0625C4.6875 14.4938 4.76888 14.8966 4.93164 15.271C5.0944 15.6453 5.3182 15.9749 5.60303 16.2598C5.88786 16.5446 6.21745 16.7684 6.5918 16.9312C6.96615 17.0939 7.37305 17.1794 7.8125 17.1875ZM14.0625 4.6875C14.0625 5.11881 14.1439 5.52165 14.3066 5.896C14.4694 6.27035 14.6932 6.59994 14.978 6.88477C15.2629 7.1696 15.5924 7.39339 15.9668 7.55615C16.3411 7.71891 16.748 7.80436 17.1875 7.8125C17.6107 7.8125 18.0135 7.73112 18.396 7.56836C18.7785 7.4056 19.1081 7.1818 19.3848 6.89697C19.6615 6.61214 19.8853 6.28255 20.0562 5.9082C20.2271 5.53385 20.3125 5.12695 20.3125 4.6875C20.3125 4.26432 20.2311 3.86149 20.0684 3.479C19.9056 3.09652 19.6818 2.76693 19.397 2.49023C19.1121 2.21354 18.7785 1.98975 18.396 1.81885C18.0135 1.64795 17.6107 1.5625 17.1875 1.5625C16.7562 1.5625 16.3534 1.64388 15.979 1.80664C15.6047 1.9694 15.2751 2.1932 14.9902 2.47803C14.7054 2.76286 14.4816 3.09652 14.3188 3.479C14.1561 3.86149 14.0706 4.26432 14.0625 4.6875Z" fill="#757575"/>
</svg>
